<mxfile host="app.diagrams.net" modified="2022-06-06T10:47:31.032Z" agent="5.0 (X11)" etag="oJCHTL-ehTwRZNL2VXeM" version="19.0.0" type="github" pages="2">
  <diagram id="zJsnwpV79JkhIARZOWpT" name="Page-1">
    <mxGraphModel dx="2198" dy="1893" grid="1" gridSize="10" guides="1" tooltips="1" connect="1" arrows="1" fold="1" page="1" pageScale="1" pageWidth="850" pageHeight="1100" math="0" shadow="0">
      <root>
        <mxCell id="0" />
        <mxCell id="1" parent="0" />
        <mxCell id="FspaiTqUk2H8QNgWRmCC-107" value="" style="rounded=0;whiteSpace=wrap;html=1;fillColor=none;dashed=1;strokeWidth=2;" vertex="1" parent="1">
          <mxGeometry x="-540" y="230" width="380" height="570" as="geometry" />
        </mxCell>
        <mxCell id="FspaiTqUk2H8QNgWRmCC-33" value="" style="group" vertex="1" connectable="0" parent="1">
          <mxGeometry x="20" y="350" width="230" height="140" as="geometry" />
        </mxCell>
        <mxCell id="FspaiTqUk2H8QNgWRmCC-2" value="" style="rounded=1;whiteSpace=wrap;html=1;fillColor=#dae8fc;strokeColor=#6c8ebf;" vertex="1" parent="FspaiTqUk2H8QNgWRmCC-33">
          <mxGeometry width="230" height="20" as="geometry" />
        </mxCell>
        <mxCell id="FspaiTqUk2H8QNgWRmCC-27" value="" style="rounded=1;whiteSpace=wrap;html=1;fillColor=#dae8fc;strokeColor=#6c8ebf;" vertex="1" parent="FspaiTqUk2H8QNgWRmCC-33">
          <mxGeometry x="10" y="20" width="210" height="20" as="geometry" />
        </mxCell>
        <mxCell id="FspaiTqUk2H8QNgWRmCC-28" value="" style="rounded=1;whiteSpace=wrap;html=1;fillColor=#dae8fc;strokeColor=#6c8ebf;" vertex="1" parent="FspaiTqUk2H8QNgWRmCC-33">
          <mxGeometry x="20" y="40" width="190" height="20" as="geometry" />
        </mxCell>
        <mxCell id="FspaiTqUk2H8QNgWRmCC-29" value="" style="rounded=1;whiteSpace=wrap;html=1;fillColor=#dae8fc;strokeColor=#6c8ebf;" vertex="1" parent="FspaiTqUk2H8QNgWRmCC-33">
          <mxGeometry x="30" y="60" width="170" height="20" as="geometry" />
        </mxCell>
        <mxCell id="FspaiTqUk2H8QNgWRmCC-30" value="" style="rounded=1;whiteSpace=wrap;html=1;fillColor=#dae8fc;strokeColor=#6c8ebf;" vertex="1" parent="FspaiTqUk2H8QNgWRmCC-33">
          <mxGeometry x="40" y="80" width="150" height="20" as="geometry" />
        </mxCell>
        <mxCell id="FspaiTqUk2H8QNgWRmCC-31" value="" style="rounded=1;whiteSpace=wrap;html=1;fillColor=#dae8fc;strokeColor=#6c8ebf;" vertex="1" parent="FspaiTqUk2H8QNgWRmCC-33">
          <mxGeometry x="50" y="100" width="130" height="20" as="geometry" />
        </mxCell>
        <mxCell id="FspaiTqUk2H8QNgWRmCC-32" value="" style="rounded=1;whiteSpace=wrap;html=1;fillColor=#dae8fc;strokeColor=#6c8ebf;" vertex="1" parent="FspaiTqUk2H8QNgWRmCC-33">
          <mxGeometry x="60" y="120" width="110" height="20" as="geometry" />
        </mxCell>
        <mxCell id="FspaiTqUk2H8QNgWRmCC-43" value="" style="rounded=1;whiteSpace=wrap;html=1;fillColor=#dae8fc;strokeColor=#6c8ebf;" vertex="1" parent="1">
          <mxGeometry x="-485" y="360" width="230" height="20" as="geometry" />
        </mxCell>
        <mxCell id="FspaiTqUk2H8QNgWRmCC-44" value="" style="rounded=1;whiteSpace=wrap;html=1;fillColor=#dae8fc;strokeColor=#6c8ebf;" vertex="1" parent="1">
          <mxGeometry x="-475" y="380" width="210" height="20" as="geometry" />
        </mxCell>
        <mxCell id="FspaiTqUk2H8QNgWRmCC-45" value="" style="rounded=1;whiteSpace=wrap;html=1;fillColor=#dae8fc;strokeColor=#6c8ebf;" vertex="1" parent="1">
          <mxGeometry x="-465" y="400" width="190" height="20" as="geometry" />
        </mxCell>
        <mxCell id="FspaiTqUk2H8QNgWRmCC-46" value="" style="rounded=1;whiteSpace=wrap;html=1;fillColor=#dae8fc;strokeColor=#6c8ebf;" vertex="1" parent="1">
          <mxGeometry x="-455" y="420" width="170" height="20" as="geometry" />
        </mxCell>
        <mxCell id="FspaiTqUk2H8QNgWRmCC-47" value="" style="rounded=1;whiteSpace=wrap;html=1;fillColor=#dae8fc;strokeColor=#6c8ebf;" vertex="1" parent="1">
          <mxGeometry x="-445" y="440" width="150" height="20" as="geometry" />
        </mxCell>
        <mxCell id="FspaiTqUk2H8QNgWRmCC-48" value="" style="rounded=1;whiteSpace=wrap;html=1;fillColor=#dae8fc;strokeColor=#6c8ebf;" vertex="1" parent="1">
          <mxGeometry x="-435" y="460" width="130" height="20" as="geometry" />
        </mxCell>
        <mxCell id="FspaiTqUk2H8QNgWRmCC-63" value="" style="rounded=1;whiteSpace=wrap;html=1;fillColor=#dae8fc;strokeColor=#6c8ebf;" vertex="1" parent="1">
          <mxGeometry x="-430" y="480" width="120" height="20" as="geometry" />
        </mxCell>
        <mxCell id="FspaiTqUk2H8QNgWRmCC-88" value="" style="endArrow=none;html=1;rounded=0;" edge="1" parent="1">
          <mxGeometry width="50" height="50" relative="1" as="geometry">
            <mxPoint x="-110" y="559.5" as="sourcePoint" />
            <mxPoint x="-70" y="560" as="targetPoint" />
          </mxGeometry>
        </mxCell>
        <mxCell id="FspaiTqUk2H8QNgWRmCC-89" value="" style="ellipse;whiteSpace=wrap;html=1;aspect=fixed;fillColor=#090C0D;" vertex="1" parent="1">
          <mxGeometry x="-110" y="555" width="10" height="10" as="geometry" />
        </mxCell>
        <mxCell id="FspaiTqUk2H8QNgWRmCC-105" value="" style="rounded=0;whiteSpace=wrap;html=1;fillColor=none;dashed=1;strokeWidth=2;" vertex="1" parent="1">
          <mxGeometry y="230" width="270" height="570" as="geometry" />
        </mxCell>
        <mxCell id="FspaiTqUk2H8QNgWRmCC-131" value="" style="group;rotation=-180;" vertex="1" connectable="0" parent="1">
          <mxGeometry x="340" y="445" width="320" height="250" as="geometry" />
        </mxCell>
        <mxCell id="FspaiTqUk2H8QNgWRmCC-108" value="" style="rounded=1;whiteSpace=wrap;html=1;fillColor=#dae8fc;strokeColor=#6c8ebf;rotation=-360;container=0;" vertex="1" parent="FspaiTqUk2H8QNgWRmCC-131">
          <mxGeometry x="45" width="230" height="20" as="geometry" />
        </mxCell>
        <mxCell id="FspaiTqUk2H8QNgWRmCC-109" value="" style="rounded=1;whiteSpace=wrap;html=1;fillColor=#dae8fc;strokeColor=#6c8ebf;rotation=-360;container=0;" vertex="1" parent="FspaiTqUk2H8QNgWRmCC-131">
          <mxGeometry x="55" y="20" width="210" height="20" as="geometry" />
        </mxCell>
        <mxCell id="FspaiTqUk2H8QNgWRmCC-110" value="" style="rounded=1;whiteSpace=wrap;html=1;fillColor=#dae8fc;strokeColor=#6c8ebf;rotation=-360;container=0;" vertex="1" parent="FspaiTqUk2H8QNgWRmCC-131">
          <mxGeometry x="65" y="40" width="190" height="20" as="geometry" />
        </mxCell>
        <mxCell id="FspaiTqUk2H8QNgWRmCC-111" value="" style="rounded=1;whiteSpace=wrap;html=1;fillColor=#dae8fc;strokeColor=#6c8ebf;rotation=-360;container=0;" vertex="1" parent="FspaiTqUk2H8QNgWRmCC-131">
          <mxGeometry x="75" y="60" width="170" height="20" as="geometry" />
        </mxCell>
        <mxCell id="FspaiTqUk2H8QNgWRmCC-112" value="" style="rounded=1;whiteSpace=wrap;html=1;fillColor=#dae8fc;strokeColor=#6c8ebf;rotation=-360;container=0;" vertex="1" parent="FspaiTqUk2H8QNgWRmCC-131">
          <mxGeometry x="85" y="80" width="150" height="20" as="geometry" />
        </mxCell>
        <mxCell id="FspaiTqUk2H8QNgWRmCC-113" value="" style="rounded=1;whiteSpace=wrap;html=1;fillColor=#dae8fc;strokeColor=#6c8ebf;rotation=-360;container=0;" vertex="1" parent="FspaiTqUk2H8QNgWRmCC-131">
          <mxGeometry x="95" y="100" width="130" height="20" as="geometry" />
        </mxCell>
        <mxCell id="FspaiTqUk2H8QNgWRmCC-114" value="" style="rounded=1;whiteSpace=wrap;html=1;fillColor=#dae8fc;strokeColor=#6c8ebf;rotation=-360;container=0;" vertex="1" parent="FspaiTqUk2H8QNgWRmCC-131">
          <mxGeometry x="100" y="120" width="120" height="20" as="geometry" />
        </mxCell>
        <mxCell id="FspaiTqUk2H8QNgWRmCC-115" value="" style="rounded=0;whiteSpace=wrap;html=1;fillColor=#b1ddf0;strokeColor=#10739e;rotation=-360;container=0;" vertex="1" parent="FspaiTqUk2H8QNgWRmCC-131">
          <mxGeometry y="150" width="100" height="20" as="geometry" />
        </mxCell>
        <mxCell id="FspaiTqUk2H8QNgWRmCC-116" value="" style="rounded=0;whiteSpace=wrap;html=1;fillColor=#b1ddf0;strokeColor=#10739e;rotation=-360;container=0;" vertex="1" parent="FspaiTqUk2H8QNgWRmCC-131">
          <mxGeometry y="170" width="100" height="20" as="geometry" />
        </mxCell>
        <mxCell id="FspaiTqUk2H8QNgWRmCC-117" value="" style="rounded=0;whiteSpace=wrap;html=1;fillColor=#b1ddf0;strokeColor=#10739e;rotation=-360;container=0;" vertex="1" parent="FspaiTqUk2H8QNgWRmCC-131">
          <mxGeometry y="190" width="100" height="20" as="geometry" />
        </mxCell>
        <mxCell id="FspaiTqUk2H8QNgWRmCC-118" value="" style="rounded=0;whiteSpace=wrap;html=1;fillColor=#b1ddf0;strokeColor=#10739e;rotation=-360;container=0;" vertex="1" parent="FspaiTqUk2H8QNgWRmCC-131">
          <mxGeometry y="210" width="100" height="20" as="geometry" />
        </mxCell>
        <mxCell id="FspaiTqUk2H8QNgWRmCC-119" value="" style="rounded=0;whiteSpace=wrap;html=1;fillColor=#b1ddf0;strokeColor=#10739e;rotation=-360;container=0;" vertex="1" parent="FspaiTqUk2H8QNgWRmCC-131">
          <mxGeometry y="230" width="100" height="20" as="geometry" />
        </mxCell>
        <mxCell id="FspaiTqUk2H8QNgWRmCC-120" value="" style="rounded=0;whiteSpace=wrap;html=1;fillColor=#b1ddf0;strokeColor=#10739e;rotation=-360;container=0;" vertex="1" parent="FspaiTqUk2H8QNgWRmCC-131">
          <mxGeometry x="110" y="150" width="100" height="20" as="geometry" />
        </mxCell>
        <mxCell id="FspaiTqUk2H8QNgWRmCC-121" value="" style="rounded=0;whiteSpace=wrap;html=1;fillColor=#b1ddf0;strokeColor=#10739e;rotation=-360;container=0;" vertex="1" parent="FspaiTqUk2H8QNgWRmCC-131">
          <mxGeometry x="110" y="170" width="100" height="20" as="geometry" />
        </mxCell>
        <mxCell id="FspaiTqUk2H8QNgWRmCC-122" value="" style="rounded=0;whiteSpace=wrap;html=1;fillColor=#b1ddf0;strokeColor=#10739e;rotation=-360;container=0;" vertex="1" parent="FspaiTqUk2H8QNgWRmCC-131">
          <mxGeometry x="110" y="190" width="100" height="20" as="geometry" />
        </mxCell>
        <mxCell id="FspaiTqUk2H8QNgWRmCC-123" value="" style="rounded=0;whiteSpace=wrap;html=1;fillColor=#b1ddf0;strokeColor=#10739e;rotation=-360;container=0;" vertex="1" parent="FspaiTqUk2H8QNgWRmCC-131">
          <mxGeometry x="110" y="210" width="100" height="20" as="geometry" />
        </mxCell>
        <mxCell id="FspaiTqUk2H8QNgWRmCC-124" value="" style="rounded=0;whiteSpace=wrap;html=1;fillColor=#b1ddf0;strokeColor=#10739e;rotation=-360;container=0;" vertex="1" parent="FspaiTqUk2H8QNgWRmCC-131">
          <mxGeometry x="110" y="230" width="100" height="20" as="geometry" />
        </mxCell>
        <mxCell id="FspaiTqUk2H8QNgWRmCC-125" value="" style="rounded=0;whiteSpace=wrap;html=1;fillColor=#b1ddf0;strokeColor=#10739e;rotation=-360;container=0;" vertex="1" parent="FspaiTqUk2H8QNgWRmCC-131">
          <mxGeometry x="220" y="150" width="100" height="20" as="geometry" />
        </mxCell>
        <mxCell id="FspaiTqUk2H8QNgWRmCC-126" value="" style="rounded=0;whiteSpace=wrap;html=1;fillColor=#b1ddf0;strokeColor=#10739e;rotation=-360;container=0;" vertex="1" parent="FspaiTqUk2H8QNgWRmCC-131">
          <mxGeometry x="220" y="170" width="100" height="20" as="geometry" />
        </mxCell>
        <mxCell id="FspaiTqUk2H8QNgWRmCC-127" value="" style="rounded=0;whiteSpace=wrap;html=1;fillColor=#b1ddf0;strokeColor=#10739e;rotation=-360;container=0;" vertex="1" parent="FspaiTqUk2H8QNgWRmCC-131">
          <mxGeometry x="220" y="190" width="100" height="20" as="geometry" />
        </mxCell>
        <mxCell id="FspaiTqUk2H8QNgWRmCC-128" value="" style="rounded=0;whiteSpace=wrap;html=1;fillColor=#b1ddf0;strokeColor=#10739e;rotation=-360;container=0;" vertex="1" parent="FspaiTqUk2H8QNgWRmCC-131">
          <mxGeometry x="220" y="210" width="100" height="20" as="geometry" />
        </mxCell>
        <mxCell id="FspaiTqUk2H8QNgWRmCC-129" value="" style="rounded=0;whiteSpace=wrap;html=1;fillColor=#b1ddf0;strokeColor=#10739e;rotation=-360;container=0;" vertex="1" parent="FspaiTqUk2H8QNgWRmCC-131">
          <mxGeometry x="220" y="230" width="100" height="20" as="geometry" />
        </mxCell>
        <mxCell id="FspaiTqUk2H8QNgWRmCC-132" value="" style="rounded=0;whiteSpace=wrap;html=1;fillColor=none;dashed=1;strokeWidth=2;" vertex="1" parent="1">
          <mxGeometry x="300" y="230" width="380" height="570" as="geometry" />
        </mxCell>
        <mxCell id="FspaiTqUk2H8QNgWRmCC-133" value="" style="endArrow=none;html=1;rounded=0;strokeWidth=2;" edge="1" parent="1">
          <mxGeometry width="50" height="50" relative="1" as="geometry">
            <mxPoint x="760" y="595" as="sourcePoint" />
            <mxPoint x="760" y="-75" as="targetPoint" />
          </mxGeometry>
        </mxCell>
        <mxCell id="FspaiTqUk2H8QNgWRmCC-34" value="" style="group;rotation=-180;" vertex="1" connectable="0" parent="1">
          <mxGeometry x="22.999999999999986" y="490" width="230" height="140" as="geometry" />
        </mxCell>
        <mxCell id="FspaiTqUk2H8QNgWRmCC-35" value="" style="rounded=1;whiteSpace=wrap;html=1;fillColor=#b1ddf0;strokeColor=#10739e;rotation=-180;flipH=1;flipV=1;" vertex="1" parent="FspaiTqUk2H8QNgWRmCC-34">
          <mxGeometry y="120" width="230" height="20" as="geometry" />
        </mxCell>
        <mxCell id="FspaiTqUk2H8QNgWRmCC-36" value="" style="rounded=1;whiteSpace=wrap;html=1;fillColor=#b1ddf0;strokeColor=#10739e;rotation=-180;flipH=1;flipV=1;" vertex="1" parent="FspaiTqUk2H8QNgWRmCC-34">
          <mxGeometry x="10" y="100" width="210" height="20" as="geometry" />
        </mxCell>
        <mxCell id="FspaiTqUk2H8QNgWRmCC-37" value="" style="rounded=1;whiteSpace=wrap;html=1;fillColor=#b1ddf0;strokeColor=#10739e;rotation=-180;flipH=1;flipV=1;" vertex="1" parent="FspaiTqUk2H8QNgWRmCC-34">
          <mxGeometry x="20" y="80" width="190" height="20" as="geometry" />
        </mxCell>
        <mxCell id="FspaiTqUk2H8QNgWRmCC-38" value="" style="rounded=1;whiteSpace=wrap;html=1;fillColor=#b1ddf0;strokeColor=#10739e;rotation=-180;flipH=1;flipV=1;" vertex="1" parent="FspaiTqUk2H8QNgWRmCC-34">
          <mxGeometry x="30" y="60" width="170" height="20" as="geometry" />
        </mxCell>
        <mxCell id="FspaiTqUk2H8QNgWRmCC-39" value="" style="rounded=1;whiteSpace=wrap;html=1;fillColor=#b1ddf0;strokeColor=#10739e;rotation=-180;flipH=1;flipV=1;" vertex="1" parent="FspaiTqUk2H8QNgWRmCC-34">
          <mxGeometry x="40" y="40" width="150" height="20" as="geometry" />
        </mxCell>
        <mxCell id="FspaiTqUk2H8QNgWRmCC-40" value="" style="rounded=1;whiteSpace=wrap;html=1;fillColor=#b1ddf0;strokeColor=#10739e;rotation=-180;flipH=1;flipV=1;" vertex="1" parent="FspaiTqUk2H8QNgWRmCC-34">
          <mxGeometry x="50" y="20" width="130" height="20" as="geometry" />
        </mxCell>
        <mxCell id="FspaiTqUk2H8QNgWRmCC-41" value="" style="rounded=1;whiteSpace=wrap;html=1;fillColor=#b1ddf0;strokeColor=#10739e;rotation=-180;" vertex="1" parent="FspaiTqUk2H8QNgWRmCC-34">
          <mxGeometry x="60" width="110" height="20" as="geometry" />
        </mxCell>
        <mxCell id="FspaiTqUk2H8QNgWRmCC-79" value="" style="endArrow=none;html=1;rounded=0;" edge="1" parent="FspaiTqUk2H8QNgWRmCC-34">
          <mxGeometry width="50" height="50" relative="1" as="geometry">
            <mxPoint x="60" y="10" as="sourcePoint" />
            <mxPoint x="-90" y="9.5" as="targetPoint" />
          </mxGeometry>
        </mxCell>
        <mxCell id="FspaiTqUk2H8QNgWRmCC-80" value="" style="endArrow=none;html=1;rounded=0;" edge="1" parent="1">
          <mxGeometry width="50" height="50" relative="1" as="geometry">
            <mxPoint x="-67.00000000000001" y="520.5" as="sourcePoint" />
            <mxPoint x="72.99999999999999" y="520" as="targetPoint" />
          </mxGeometry>
        </mxCell>
        <mxCell id="FspaiTqUk2H8QNgWRmCC-81" value="" style="endArrow=none;html=1;rounded=0;" edge="1" parent="1">
          <mxGeometry width="50" height="50" relative="1" as="geometry">
            <mxPoint x="-67.00000000000001" y="540.5" as="sourcePoint" />
            <mxPoint x="62.999999999999986" y="540" as="targetPoint" />
          </mxGeometry>
        </mxCell>
        <mxCell id="FspaiTqUk2H8QNgWRmCC-82" value="" style="endArrow=none;html=1;rounded=0;" edge="1" parent="1">
          <mxGeometry width="50" height="50" relative="1" as="geometry">
            <mxPoint x="-67.00000000000001" y="560.5" as="sourcePoint" />
            <mxPoint x="52.999999999999986" y="560" as="targetPoint" />
          </mxGeometry>
        </mxCell>
        <mxCell id="FspaiTqUk2H8QNgWRmCC-83" value="" style="endArrow=none;html=1;rounded=0;" edge="1" parent="1">
          <mxGeometry width="50" height="50" relative="1" as="geometry">
            <mxPoint x="-67.00000000000001" y="580.5" as="sourcePoint" />
            <mxPoint x="42.999999999999986" y="580" as="targetPoint" />
          </mxGeometry>
        </mxCell>
        <mxCell id="FspaiTqUk2H8QNgWRmCC-84" value="" style="endArrow=none;html=1;rounded=0;" edge="1" parent="1">
          <mxGeometry width="50" height="50" relative="1" as="geometry">
            <mxPoint x="-67.00000000000001" y="600.5" as="sourcePoint" />
            <mxPoint x="32.999999999999986" y="600" as="targetPoint" />
          </mxGeometry>
        </mxCell>
        <mxCell id="FspaiTqUk2H8QNgWRmCC-85" value="" style="endArrow=none;html=1;rounded=0;" edge="1" parent="1">
          <mxGeometry width="50" height="50" relative="1" as="geometry">
            <mxPoint x="-67.00000000000001" y="621" as="sourcePoint" />
            <mxPoint x="22.999999999999986" y="621" as="targetPoint" />
          </mxGeometry>
        </mxCell>
        <mxCell id="FspaiTqUk2H8QNgWRmCC-86" value="" style="endArrow=none;html=1;rounded=0;" edge="1" parent="1">
          <mxGeometry width="50" height="50" relative="1" as="geometry">
            <mxPoint x="-68.00000000000001" y="500" as="sourcePoint" />
            <mxPoint x="-68.00000000000001" y="620" as="targetPoint" />
          </mxGeometry>
        </mxCell>
        <mxCell id="RAxcAVtAjnecqJDjMi2z-3" value="" style="group;flipH=1;" vertex="1" connectable="0" parent="1">
          <mxGeometry x="-530" y="500" width="432" height="180" as="geometry" />
        </mxCell>
        <mxCell id="FspaiTqUk2H8QNgWRmCC-64" value="" style="rounded=0;whiteSpace=wrap;html=1;fillColor=#b1ddf0;strokeColor=#10739e;" vertex="1" parent="RAxcAVtAjnecqJDjMi2z-3">
          <mxGeometry x="220" width="100" height="20" as="geometry" />
        </mxCell>
        <mxCell id="FspaiTqUk2H8QNgWRmCC-65" value="" style="rounded=0;whiteSpace=wrap;html=1;fillColor=#b1ddf0;strokeColor=#10739e;" vertex="1" parent="RAxcAVtAjnecqJDjMi2z-3">
          <mxGeometry x="220" y="20" width="100" height="20" as="geometry" />
        </mxCell>
        <mxCell id="FspaiTqUk2H8QNgWRmCC-66" value="" style="rounded=0;whiteSpace=wrap;html=1;fillColor=#b1ddf0;strokeColor=#10739e;" vertex="1" parent="RAxcAVtAjnecqJDjMi2z-3">
          <mxGeometry x="220" y="40" width="100" height="20" as="geometry" />
        </mxCell>
        <mxCell id="FspaiTqUk2H8QNgWRmCC-67" value="" style="rounded=0;whiteSpace=wrap;html=1;fillColor=#b1ddf0;strokeColor=#10739e;" vertex="1" parent="RAxcAVtAjnecqJDjMi2z-3">
          <mxGeometry x="220" y="60" width="100" height="20" as="geometry" />
        </mxCell>
        <mxCell id="FspaiTqUk2H8QNgWRmCC-68" value="" style="rounded=0;whiteSpace=wrap;html=1;fillColor=#b1ddf0;strokeColor=#10739e;" vertex="1" parent="RAxcAVtAjnecqJDjMi2z-3">
          <mxGeometry x="220" y="80" width="100" height="20" as="geometry" />
        </mxCell>
        <mxCell id="FspaiTqUk2H8QNgWRmCC-69" value="" style="rounded=0;whiteSpace=wrap;html=1;fillColor=#b1ddf0;strokeColor=#10739e;" vertex="1" parent="RAxcAVtAjnecqJDjMi2z-3">
          <mxGeometry x="110" width="100" height="20" as="geometry" />
        </mxCell>
        <mxCell id="FspaiTqUk2H8QNgWRmCC-70" value="" style="rounded=0;whiteSpace=wrap;html=1;fillColor=#b1ddf0;strokeColor=#10739e;" vertex="1" parent="RAxcAVtAjnecqJDjMi2z-3">
          <mxGeometry x="110" y="20" width="100" height="20" as="geometry" />
        </mxCell>
        <mxCell id="FspaiTqUk2H8QNgWRmCC-71" value="" style="rounded=0;whiteSpace=wrap;html=1;fillColor=#b1ddf0;strokeColor=#10739e;" vertex="1" parent="RAxcAVtAjnecqJDjMi2z-3">
          <mxGeometry x="110" y="40" width="100" height="20" as="geometry" />
        </mxCell>
        <mxCell id="FspaiTqUk2H8QNgWRmCC-72" value="" style="rounded=0;whiteSpace=wrap;html=1;fillColor=#b1ddf0;strokeColor=#10739e;" vertex="1" parent="RAxcAVtAjnecqJDjMi2z-3">
          <mxGeometry x="110" y="60" width="100" height="20" as="geometry" />
        </mxCell>
        <mxCell id="FspaiTqUk2H8QNgWRmCC-73" value="" style="rounded=0;whiteSpace=wrap;html=1;fillColor=#b1ddf0;strokeColor=#10739e;" vertex="1" parent="RAxcAVtAjnecqJDjMi2z-3">
          <mxGeometry x="110" y="80" width="100" height="20" as="geometry" />
        </mxCell>
        <mxCell id="FspaiTqUk2H8QNgWRmCC-74" value="" style="rounded=0;whiteSpace=wrap;html=1;fillColor=#b1ddf0;strokeColor=#10739e;" vertex="1" parent="RAxcAVtAjnecqJDjMi2z-3">
          <mxGeometry width="100" height="20" as="geometry" />
        </mxCell>
        <mxCell id="FspaiTqUk2H8QNgWRmCC-75" value="" style="rounded=0;whiteSpace=wrap;html=1;fillColor=#b1ddf0;strokeColor=#10739e;" vertex="1" parent="RAxcAVtAjnecqJDjMi2z-3">
          <mxGeometry y="20" width="100" height="20" as="geometry" />
        </mxCell>
        <mxCell id="FspaiTqUk2H8QNgWRmCC-76" value="" style="rounded=0;whiteSpace=wrap;html=1;fillColor=#b1ddf0;strokeColor=#10739e;" vertex="1" parent="RAxcAVtAjnecqJDjMi2z-3">
          <mxGeometry y="40" width="100" height="20" as="geometry" />
        </mxCell>
        <mxCell id="FspaiTqUk2H8QNgWRmCC-77" value="" style="rounded=0;whiteSpace=wrap;html=1;fillColor=#b1ddf0;strokeColor=#10739e;" vertex="1" parent="RAxcAVtAjnecqJDjMi2z-3">
          <mxGeometry y="60" width="100" height="20" as="geometry" />
        </mxCell>
        <mxCell id="FspaiTqUk2H8QNgWRmCC-78" value="" style="rounded=0;whiteSpace=wrap;html=1;fillColor=#b1ddf0;strokeColor=#10739e;" vertex="1" parent="RAxcAVtAjnecqJDjMi2z-3">
          <mxGeometry y="80" width="100" height="20" as="geometry" />
        </mxCell>
        <mxCell id="FspaiTqUk2H8QNgWRmCC-92" value="" style="ellipse;whiteSpace=wrap;html=1;aspect=fixed;fillColor=#090C0D;" vertex="1" parent="RAxcAVtAjnecqJDjMi2z-3">
          <mxGeometry x="422" y="82" width="10" height="10" as="geometry" />
        </mxCell>
        <mxCell id="FspaiTqUk2H8QNgWRmCC-93" value="" style="ellipse;whiteSpace=wrap;html=1;aspect=fixed;fillColor=#090C0D;" vertex="1" parent="RAxcAVtAjnecqJDjMi2z-3">
          <mxGeometry x="404" y="82" width="10" height="10" as="geometry" />
        </mxCell>
        <mxCell id="FspaiTqUk2H8QNgWRmCC-94" value="" style="ellipse;whiteSpace=wrap;html=1;aspect=fixed;fillColor=#090C0D;" vertex="1" parent="RAxcAVtAjnecqJDjMi2z-3">
          <mxGeometry x="383" y="82" width="10" height="10" as="geometry" />
        </mxCell>
        <mxCell id="FspaiTqUk2H8QNgWRmCC-96" value="" style="endArrow=none;html=1;rounded=0;" edge="1" parent="RAxcAVtAjnecqJDjMi2z-3">
          <mxGeometry width="50" height="50" relative="1" as="geometry">
            <mxPoint x="430" y="180" as="sourcePoint" />
            <mxPoint x="50" y="180" as="targetPoint" />
          </mxGeometry>
        </mxCell>
        <mxCell id="FspaiTqUk2H8QNgWRmCC-97" value="" style="endArrow=none;html=1;rounded=0;" edge="1" parent="RAxcAVtAjnecqJDjMi2z-3">
          <mxGeometry width="50" height="50" relative="1" as="geometry">
            <mxPoint x="410" y="160" as="sourcePoint" />
            <mxPoint x="160" y="160" as="targetPoint" />
          </mxGeometry>
        </mxCell>
        <mxCell id="FspaiTqUk2H8QNgWRmCC-98" value="" style="endArrow=none;html=1;rounded=0;" edge="1" parent="RAxcAVtAjnecqJDjMi2z-3">
          <mxGeometry width="50" height="50" relative="1" as="geometry">
            <mxPoint x="390" y="140" as="sourcePoint" />
            <mxPoint x="280" y="140" as="targetPoint" />
          </mxGeometry>
        </mxCell>
        <mxCell id="FspaiTqUk2H8QNgWRmCC-99" value="" style="endArrow=none;html=1;rounded=0;" edge="1" parent="RAxcAVtAjnecqJDjMi2z-3">
          <mxGeometry width="50" height="50" relative="1" as="geometry">
            <mxPoint x="281" y="140" as="sourcePoint" />
            <mxPoint x="281" y="100" as="targetPoint" />
          </mxGeometry>
        </mxCell>
        <mxCell id="FspaiTqUk2H8QNgWRmCC-100" value="" style="endArrow=none;html=1;rounded=0;" edge="1" parent="RAxcAVtAjnecqJDjMi2z-3">
          <mxGeometry width="50" height="50" relative="1" as="geometry">
            <mxPoint x="160" y="160" as="sourcePoint" />
            <mxPoint x="160.5" y="100" as="targetPoint" />
          </mxGeometry>
        </mxCell>
        <mxCell id="FspaiTqUk2H8QNgWRmCC-101" value="" style="endArrow=none;html=1;rounded=0;" edge="1" parent="RAxcAVtAjnecqJDjMi2z-3">
          <mxGeometry width="50" height="50" relative="1" as="geometry">
            <mxPoint x="50" y="180" as="sourcePoint" />
            <mxPoint x="50.5" y="100" as="targetPoint" />
          </mxGeometry>
        </mxCell>
        <mxCell id="FspaiTqUk2H8QNgWRmCC-102" value="" style="endArrow=none;html=1;rounded=0;entryX=0.5;entryY=1;entryDx=0;entryDy=0;" edge="1" parent="RAxcAVtAjnecqJDjMi2z-3" target="FspaiTqUk2H8QNgWRmCC-94">
          <mxGeometry width="50" height="50" relative="1" as="geometry">
            <mxPoint x="388.5" y="140" as="sourcePoint" />
            <mxPoint x="388.5" y="100" as="targetPoint" />
          </mxGeometry>
        </mxCell>
        <mxCell id="FspaiTqUk2H8QNgWRmCC-103" value="" style="endArrow=none;html=1;rounded=0;" edge="1" parent="RAxcAVtAjnecqJDjMi2z-3">
          <mxGeometry width="50" height="50" relative="1" as="geometry">
            <mxPoint x="409" y="160" as="sourcePoint" />
            <mxPoint x="409.5" y="82" as="targetPoint" />
          </mxGeometry>
        </mxCell>
        <mxCell id="FspaiTqUk2H8QNgWRmCC-104" value="" style="endArrow=none;html=1;rounded=0;" edge="1" parent="RAxcAVtAjnecqJDjMi2z-3">
          <mxGeometry width="50" height="50" relative="1" as="geometry">
            <mxPoint x="430" y="180" as="sourcePoint" />
            <mxPoint x="427.5" y="92" as="targetPoint" />
          </mxGeometry>
        </mxCell>
      </root>
    </mxGraphModel>
  </diagram>
  <diagram id="xnEpAL7bE6VNB3Ynua94" name="Page-2">
    <mxGraphModel dx="1348" dy="1893" grid="1" gridSize="10" guides="1" tooltips="1" connect="1" arrows="1" fold="1" page="1" pageScale="1" pageWidth="850" pageHeight="1100" math="0" shadow="0">
      <root>
        <mxCell id="0" />
        <mxCell id="1" parent="0" />
        <mxCell id="rl1cY0u8odlh3U70p4yS-25" value="" style="group;rotation=-90;" vertex="1" connectable="0" parent="1">
          <mxGeometry x="105" y="279" width="320" height="280" as="geometry" />
        </mxCell>
        <mxCell id="rl1cY0u8odlh3U70p4yS-18" value="" style="endArrow=none;html=1;rounded=0;" edge="1" parent="rl1cY0u8odlh3U70p4yS-25">
          <mxGeometry width="50" height="50" relative="1" as="geometry">
            <mxPoint x="190" y="120" as="sourcePoint" />
            <mxPoint x="190" y="-20" as="targetPoint" />
          </mxGeometry>
        </mxCell>
        <mxCell id="rl1cY0u8odlh3U70p4yS-19" value="" style="endArrow=none;html=1;rounded=0;" edge="1" parent="rl1cY0u8odlh3U70p4yS-25">
          <mxGeometry width="50" height="50" relative="1" as="geometry">
            <mxPoint x="210" y="110" as="sourcePoint" />
            <mxPoint x="210" y="-20" as="targetPoint" />
          </mxGeometry>
        </mxCell>
        <mxCell id="rl1cY0u8odlh3U70p4yS-20" value="" style="endArrow=none;html=1;rounded=0;" edge="1" parent="rl1cY0u8odlh3U70p4yS-25">
          <mxGeometry width="50" height="50" relative="1" as="geometry">
            <mxPoint x="230" y="100" as="sourcePoint" />
            <mxPoint x="230" y="-20" as="targetPoint" />
          </mxGeometry>
        </mxCell>
        <mxCell id="rl1cY0u8odlh3U70p4yS-21" value="" style="endArrow=none;html=1;rounded=0;" edge="1" parent="rl1cY0u8odlh3U70p4yS-25">
          <mxGeometry width="50" height="50" relative="1" as="geometry">
            <mxPoint x="250" y="90" as="sourcePoint" />
            <mxPoint x="250" y="-20" as="targetPoint" />
          </mxGeometry>
        </mxCell>
        <mxCell id="rl1cY0u8odlh3U70p4yS-22" value="" style="endArrow=none;html=1;rounded=0;" edge="1" parent="rl1cY0u8odlh3U70p4yS-25">
          <mxGeometry width="50" height="50" relative="1" as="geometry">
            <mxPoint x="270" y="80" as="sourcePoint" />
            <mxPoint x="270" y="-20" as="targetPoint" />
          </mxGeometry>
        </mxCell>
        <mxCell id="rl1cY0u8odlh3U70p4yS-23" value="" style="endArrow=none;html=1;rounded=0;" edge="1" parent="rl1cY0u8odlh3U70p4yS-25">
          <mxGeometry width="50" height="50" relative="1" as="geometry">
            <mxPoint x="290" y="70" as="sourcePoint" />
            <mxPoint x="290" y="-20" as="targetPoint" />
          </mxGeometry>
        </mxCell>
        <mxCell id="rl1cY0u8odlh3U70p4yS-24" value="" style="endArrow=none;html=1;rounded=0;" edge="1" parent="rl1cY0u8odlh3U70p4yS-25">
          <mxGeometry width="50" height="50" relative="1" as="geometry">
            <mxPoint x="290" y="-20" as="sourcePoint" />
            <mxPoint x="170" y="-20" as="targetPoint" />
          </mxGeometry>
        </mxCell>
        <mxCell id="rl1cY0u8odlh3U70p4yS-2" value="" style="rounded=1;whiteSpace=wrap;html=1;fillColor=#dae8fc;strokeColor=#6c8ebf;container=0;rotation=-90;" vertex="1" parent="rl1cY0u8odlh3U70p4yS-25">
          <mxGeometry x="-85" y="175" width="230" height="20" as="geometry" />
        </mxCell>
        <mxCell id="rl1cY0u8odlh3U70p4yS-3" value="" style="rounded=1;whiteSpace=wrap;html=1;fillColor=#dae8fc;strokeColor=#6c8ebf;container=0;rotation=-90;" vertex="1" parent="rl1cY0u8odlh3U70p4yS-25">
          <mxGeometry x="-55" y="175" width="210" height="20" as="geometry" />
        </mxCell>
        <mxCell id="rl1cY0u8odlh3U70p4yS-4" value="" style="rounded=1;whiteSpace=wrap;html=1;fillColor=#dae8fc;strokeColor=#6c8ebf;container=0;rotation=-90;" vertex="1" parent="rl1cY0u8odlh3U70p4yS-25">
          <mxGeometry x="-25" y="175" width="190" height="20" as="geometry" />
        </mxCell>
        <mxCell id="rl1cY0u8odlh3U70p4yS-5" value="" style="rounded=1;whiteSpace=wrap;html=1;fillColor=#dae8fc;strokeColor=#6c8ebf;container=0;rotation=-90;" vertex="1" parent="rl1cY0u8odlh3U70p4yS-25">
          <mxGeometry x="5" y="175" width="170" height="20" as="geometry" />
        </mxCell>
        <mxCell id="rl1cY0u8odlh3U70p4yS-6" value="" style="rounded=1;whiteSpace=wrap;html=1;fillColor=#dae8fc;strokeColor=#6c8ebf;container=0;rotation=-90;" vertex="1" parent="rl1cY0u8odlh3U70p4yS-25">
          <mxGeometry x="35" y="175" width="150" height="20" as="geometry" />
        </mxCell>
        <mxCell id="rl1cY0u8odlh3U70p4yS-7" value="" style="rounded=1;whiteSpace=wrap;html=1;fillColor=#dae8fc;strokeColor=#6c8ebf;container=0;rotation=-90;" vertex="1" parent="rl1cY0u8odlh3U70p4yS-25">
          <mxGeometry x="65" y="175" width="130" height="20" as="geometry" />
        </mxCell>
        <mxCell id="rl1cY0u8odlh3U70p4yS-8" value="" style="rounded=1;whiteSpace=wrap;html=1;fillColor=#dae8fc;strokeColor=#6c8ebf;container=0;rotation=-90;" vertex="1" parent="rl1cY0u8odlh3U70p4yS-25">
          <mxGeometry x="95" y="175" width="110" height="20" as="geometry" />
        </mxCell>
        <mxCell id="rl1cY0u8odlh3U70p4yS-10" value="" style="rounded=1;whiteSpace=wrap;html=1;fillColor=#b1ddf0;strokeColor=#10739e;rotation=-270;container=0;" vertex="1" parent="rl1cY0u8odlh3U70p4yS-25">
          <mxGeometry x="175" y="175" width="230" height="20" as="geometry" />
        </mxCell>
        <mxCell id="rl1cY0u8odlh3U70p4yS-11" value="" style="rounded=1;whiteSpace=wrap;html=1;fillColor=#b1ddf0;strokeColor=#10739e;rotation=-270;container=0;" vertex="1" parent="rl1cY0u8odlh3U70p4yS-25">
          <mxGeometry x="165" y="175" width="210" height="20" as="geometry" />
        </mxCell>
        <mxCell id="rl1cY0u8odlh3U70p4yS-12" value="" style="rounded=1;whiteSpace=wrap;html=1;fillColor=#b1ddf0;strokeColor=#10739e;rotation=-270;container=0;" vertex="1" parent="rl1cY0u8odlh3U70p4yS-25">
          <mxGeometry x="155" y="175" width="190" height="20" as="geometry" />
        </mxCell>
        <mxCell id="rl1cY0u8odlh3U70p4yS-13" value="" style="rounded=1;whiteSpace=wrap;html=1;fillColor=#b1ddf0;strokeColor=#10739e;rotation=-270;container=0;" vertex="1" parent="rl1cY0u8odlh3U70p4yS-25">
          <mxGeometry x="145" y="175" width="170" height="20" as="geometry" />
        </mxCell>
        <mxCell id="rl1cY0u8odlh3U70p4yS-14" value="" style="rounded=1;whiteSpace=wrap;html=1;fillColor=#b1ddf0;strokeColor=#10739e;rotation=-270;container=0;" vertex="1" parent="rl1cY0u8odlh3U70p4yS-25">
          <mxGeometry x="135" y="175" width="150" height="20" as="geometry" />
        </mxCell>
        <mxCell id="rl1cY0u8odlh3U70p4yS-15" value="" style="rounded=1;whiteSpace=wrap;html=1;fillColor=#b1ddf0;strokeColor=#10739e;rotation=-270;container=0;" vertex="1" parent="rl1cY0u8odlh3U70p4yS-25">
          <mxGeometry x="125" y="175" width="130" height="20" as="geometry" />
        </mxCell>
        <mxCell id="rl1cY0u8odlh3U70p4yS-16" value="" style="rounded=1;whiteSpace=wrap;html=1;fillColor=#b1ddf0;strokeColor=#10739e;rotation=-270;container=0;" vertex="1" parent="rl1cY0u8odlh3U70p4yS-25">
          <mxGeometry x="115" y="175" width="110" height="20" as="geometry" />
        </mxCell>
        <mxCell id="rl1cY0u8odlh3U70p4yS-17" value="" style="endArrow=none;html=1;rounded=0;" edge="1" parent="rl1cY0u8odlh3U70p4yS-25">
          <mxGeometry width="50" height="50" relative="1" as="geometry">
            <mxPoint x="170" y="130" as="sourcePoint" />
            <mxPoint x="170" y="-20" as="targetPoint" />
          </mxGeometry>
        </mxCell>
        <mxCell id="34b6X-j4olFiXe51S5oJ-1" value="" style="endArrow=none;html=1;rounded=0;" edge="1" parent="1">
          <mxGeometry width="50" height="50" relative="1" as="geometry">
            <mxPoint x="335" y="258.5" as="sourcePoint" />
            <mxPoint x="335" y="219" as="targetPoint" />
          </mxGeometry>
        </mxCell>
        <mxCell id="XOmerI31JQEeBpq5R20L-1" value="" style="ellipse;whiteSpace=wrap;html=1;aspect=fixed;fillColor=#090C0D;" vertex="1" parent="1">
          <mxGeometry x="330" y="210" width="10" height="10" as="geometry" />
        </mxCell>
        <mxCell id="EQVfch1iefdYe3a4qD9I-1" value="" style="rounded=1;whiteSpace=wrap;html=1;fillColor=#dae8fc;strokeColor=#6c8ebf;rotation=-90;" vertex="1" parent="1">
          <mxGeometry x="26" y="-76" width="230" height="20" as="geometry" />
        </mxCell>
        <mxCell id="EQVfch1iefdYe3a4qD9I-2" value="" style="rounded=1;whiteSpace=wrap;html=1;fillColor=#dae8fc;strokeColor=#6c8ebf;rotation=-90;" vertex="1" parent="1">
          <mxGeometry x="56" y="-76" width="210" height="20" as="geometry" />
        </mxCell>
        <mxCell id="EQVfch1iefdYe3a4qD9I-3" value="" style="rounded=1;whiteSpace=wrap;html=1;fillColor=#dae8fc;strokeColor=#6c8ebf;rotation=-90;" vertex="1" parent="1">
          <mxGeometry x="86" y="-76" width="190" height="20" as="geometry" />
        </mxCell>
        <mxCell id="EQVfch1iefdYe3a4qD9I-4" value="" style="rounded=1;whiteSpace=wrap;html=1;fillColor=#dae8fc;strokeColor=#6c8ebf;rotation=-90;" vertex="1" parent="1">
          <mxGeometry x="116" y="-76" width="170" height="20" as="geometry" />
        </mxCell>
        <mxCell id="EQVfch1iefdYe3a4qD9I-5" value="" style="rounded=1;whiteSpace=wrap;html=1;fillColor=#dae8fc;strokeColor=#6c8ebf;rotation=-90;" vertex="1" parent="1">
          <mxGeometry x="146" y="-76" width="150" height="20" as="geometry" />
        </mxCell>
        <mxCell id="EQVfch1iefdYe3a4qD9I-6" value="" style="rounded=1;whiteSpace=wrap;html=1;fillColor=#dae8fc;strokeColor=#6c8ebf;rotation=-90;" vertex="1" parent="1">
          <mxGeometry x="176" y="-76" width="130" height="20" as="geometry" />
        </mxCell>
        <mxCell id="EQVfch1iefdYe3a4qD9I-7" value="" style="rounded=1;whiteSpace=wrap;html=1;fillColor=#dae8fc;strokeColor=#6c8ebf;rotation=-90;" vertex="1" parent="1">
          <mxGeometry x="201" y="-76" width="120" height="20" as="geometry" />
        </mxCell>
        <mxCell id="EQVfch1iefdYe3a4qD9I-8" value="" style="rounded=0;whiteSpace=wrap;html=1;fillColor=#b1ddf0;strokeColor=#10739e;rotation=-90;" vertex="1" parent="1">
          <mxGeometry x="241" y="19" width="100" height="20" as="geometry" />
        </mxCell>
        <mxCell id="EQVfch1iefdYe3a4qD9I-9" value="" style="rounded=0;whiteSpace=wrap;html=1;fillColor=#b1ddf0;strokeColor=#10739e;rotation=-90;" vertex="1" parent="1">
          <mxGeometry x="261" y="19" width="100" height="20" as="geometry" />
        </mxCell>
        <mxCell id="EQVfch1iefdYe3a4qD9I-10" value="" style="rounded=0;whiteSpace=wrap;html=1;fillColor=#b1ddf0;strokeColor=#10739e;rotation=-90;" vertex="1" parent="1">
          <mxGeometry x="281" y="19" width="100" height="20" as="geometry" />
        </mxCell>
        <mxCell id="EQVfch1iefdYe3a4qD9I-11" value="" style="rounded=0;whiteSpace=wrap;html=1;fillColor=#b1ddf0;strokeColor=#10739e;rotation=-90;" vertex="1" parent="1">
          <mxGeometry x="301" y="19" width="100" height="20" as="geometry" />
        </mxCell>
        <mxCell id="EQVfch1iefdYe3a4qD9I-12" value="" style="rounded=0;whiteSpace=wrap;html=1;fillColor=#b1ddf0;strokeColor=#10739e;rotation=-90;" vertex="1" parent="1">
          <mxGeometry x="321" y="19" width="100" height="20" as="geometry" />
        </mxCell>
        <mxCell id="EQVfch1iefdYe3a4qD9I-13" value="" style="rounded=0;whiteSpace=wrap;html=1;fillColor=#b1ddf0;strokeColor=#10739e;rotation=-90;" vertex="1" parent="1">
          <mxGeometry x="241" y="-91" width="100" height="20" as="geometry" />
        </mxCell>
        <mxCell id="EQVfch1iefdYe3a4qD9I-14" value="" style="rounded=0;whiteSpace=wrap;html=1;fillColor=#b1ddf0;strokeColor=#10739e;rotation=-90;" vertex="1" parent="1">
          <mxGeometry x="261" y="-91" width="100" height="20" as="geometry" />
        </mxCell>
        <mxCell id="EQVfch1iefdYe3a4qD9I-15" value="" style="rounded=0;whiteSpace=wrap;html=1;fillColor=#b1ddf0;strokeColor=#10739e;rotation=-90;" vertex="1" parent="1">
          <mxGeometry x="281" y="-91" width="100" height="20" as="geometry" />
        </mxCell>
        <mxCell id="EQVfch1iefdYe3a4qD9I-16" value="" style="rounded=0;whiteSpace=wrap;html=1;fillColor=#b1ddf0;strokeColor=#10739e;rotation=-90;" vertex="1" parent="1">
          <mxGeometry x="301" y="-91" width="100" height="20" as="geometry" />
        </mxCell>
        <mxCell id="EQVfch1iefdYe3a4qD9I-17" value="" style="rounded=0;whiteSpace=wrap;html=1;fillColor=#b1ddf0;strokeColor=#10739e;rotation=-90;" vertex="1" parent="1">
          <mxGeometry x="321" y="-91" width="100" height="20" as="geometry" />
        </mxCell>
        <mxCell id="EQVfch1iefdYe3a4qD9I-18" value="" style="rounded=0;whiteSpace=wrap;html=1;fillColor=#b1ddf0;strokeColor=#10739e;rotation=-90;" vertex="1" parent="1">
          <mxGeometry x="241" y="-201" width="100" height="20" as="geometry" />
        </mxCell>
        <mxCell id="EQVfch1iefdYe3a4qD9I-19" value="" style="rounded=0;whiteSpace=wrap;html=1;fillColor=#b1ddf0;strokeColor=#10739e;rotation=-90;" vertex="1" parent="1">
          <mxGeometry x="261" y="-201" width="100" height="20" as="geometry" />
        </mxCell>
        <mxCell id="EQVfch1iefdYe3a4qD9I-20" value="" style="rounded=0;whiteSpace=wrap;html=1;fillColor=#b1ddf0;strokeColor=#10739e;rotation=-90;" vertex="1" parent="1">
          <mxGeometry x="281" y="-201" width="100" height="20" as="geometry" />
        </mxCell>
        <mxCell id="EQVfch1iefdYe3a4qD9I-21" value="" style="rounded=0;whiteSpace=wrap;html=1;fillColor=#b1ddf0;strokeColor=#10739e;rotation=-90;" vertex="1" parent="1">
          <mxGeometry x="301" y="-201" width="100" height="20" as="geometry" />
        </mxCell>
        <mxCell id="EQVfch1iefdYe3a4qD9I-22" value="" style="rounded=0;whiteSpace=wrap;html=1;fillColor=#b1ddf0;strokeColor=#10739e;rotation=-90;" vertex="1" parent="1">
          <mxGeometry x="321" y="-201" width="100" height="20" as="geometry" />
        </mxCell>
        <mxCell id="EQVfch1iefdYe3a4qD9I-24" value="" style="ellipse;whiteSpace=wrap;html=1;aspect=fixed;fillColor=#090C0D;rotation=-90;" vertex="1" parent="1">
          <mxGeometry x="411" y="184" width="10" height="10" as="geometry" />
        </mxCell>
        <mxCell id="EQVfch1iefdYe3a4qD9I-25" value="" style="ellipse;whiteSpace=wrap;html=1;aspect=fixed;fillColor=#090C0D;rotation=-90;" vertex="1" parent="1">
          <mxGeometry x="382" y="165" width="10" height="10" as="geometry" />
        </mxCell>
        <mxCell id="EQVfch1iefdYe3a4qD9I-26" value="" style="ellipse;whiteSpace=wrap;html=1;aspect=fixed;fillColor=#090C0D;rotation=-90;" vertex="1" parent="1">
          <mxGeometry x="363" y="142" width="10" height="10" as="geometry" />
        </mxCell>
        <mxCell id="EQVfch1iefdYe3a4qD9I-27" value="" style="endArrow=none;html=1;rounded=0;" edge="1" parent="1">
          <mxGeometry width="50" height="50" relative="1" as="geometry">
            <mxPoint x="461" y="189" as="sourcePoint" />
            <mxPoint x="461" y="-191" as="targetPoint" />
          </mxGeometry>
        </mxCell>
        <mxCell id="EQVfch1iefdYe3a4qD9I-28" value="" style="endArrow=none;html=1;rounded=0;" edge="1" parent="1">
          <mxGeometry width="50" height="50" relative="1" as="geometry">
            <mxPoint x="441" y="169" as="sourcePoint" />
            <mxPoint x="441" y="-81" as="targetPoint" />
          </mxGeometry>
        </mxCell>
        <mxCell id="EQVfch1iefdYe3a4qD9I-29" value="" style="endArrow=none;html=1;rounded=0;" edge="1" parent="1">
          <mxGeometry width="50" height="50" relative="1" as="geometry">
            <mxPoint x="421" y="149" as="sourcePoint" />
            <mxPoint x="421" y="39" as="targetPoint" />
          </mxGeometry>
        </mxCell>
        <mxCell id="EQVfch1iefdYe3a4qD9I-30" value="" style="endArrow=none;html=1;rounded=0;" edge="1" parent="1">
          <mxGeometry width="50" height="50" relative="1" as="geometry">
            <mxPoint x="421" y="40" as="sourcePoint" />
            <mxPoint x="381" y="40" as="targetPoint" />
          </mxGeometry>
        </mxCell>
        <mxCell id="EQVfch1iefdYe3a4qD9I-31" value="" style="endArrow=none;html=1;rounded=0;" edge="1" parent="1">
          <mxGeometry width="50" height="50" relative="1" as="geometry">
            <mxPoint x="441" y="-81" as="sourcePoint" />
            <mxPoint x="381" y="-80" as="targetPoint" />
          </mxGeometry>
        </mxCell>
        <mxCell id="EQVfch1iefdYe3a4qD9I-32" value="" style="endArrow=none;html=1;rounded=0;" edge="1" parent="1">
          <mxGeometry width="50" height="50" relative="1" as="geometry">
            <mxPoint x="461" y="-191" as="sourcePoint" />
            <mxPoint x="381" y="-190" as="targetPoint" />
          </mxGeometry>
        </mxCell>
        <mxCell id="EQVfch1iefdYe3a4qD9I-33" value="" style="endArrow=none;html=1;rounded=0;entryX=0.5;entryY=1;entryDx=0;entryDy=0;" edge="1" parent="1" target="EQVfch1iefdYe3a4qD9I-26">
          <mxGeometry width="50" height="50" relative="1" as="geometry">
            <mxPoint x="421" y="148" as="sourcePoint" />
            <mxPoint x="381" y="148" as="targetPoint" />
          </mxGeometry>
        </mxCell>
        <mxCell id="EQVfch1iefdYe3a4qD9I-34" value="" style="endArrow=none;html=1;rounded=0;" edge="1" parent="1">
          <mxGeometry width="50" height="50" relative="1" as="geometry">
            <mxPoint x="441" y="168" as="sourcePoint" />
            <mxPoint x="390" y="170" as="targetPoint" />
          </mxGeometry>
        </mxCell>
        <mxCell id="EQVfch1iefdYe3a4qD9I-35" value="" style="endArrow=none;html=1;rounded=0;" edge="1" parent="1">
          <mxGeometry width="50" height="50" relative="1" as="geometry">
            <mxPoint x="461" y="189" as="sourcePoint" />
            <mxPoint x="420" y="190" as="targetPoint" />
          </mxGeometry>
        </mxCell>
        <mxCell id="EQVfch1iefdYe3a4qD9I-37" value="" style="endArrow=none;html=1;rounded=0;strokeWidth=1;exitX=1;exitY=0;exitDx=0;exitDy=0;" edge="1" parent="1" source="XOmerI31JQEeBpq5R20L-1">
          <mxGeometry width="50" height="50" relative="1" as="geometry">
            <mxPoint x="353" y="210" as="sourcePoint" />
            <mxPoint x="380" y="180" as="targetPoint" />
          </mxGeometry>
        </mxCell>
        <mxCell id="zuJZEfKO20q1fj9bP48e-1" value="" style="group;rotation=90;" vertex="1" connectable="0" parent="1">
          <mxGeometry x="650" y="28.999999999999993" width="320" height="250" as="geometry" />
        </mxCell>
        <mxCell id="zuJZEfKO20q1fj9bP48e-2" value="" style="rounded=1;whiteSpace=wrap;html=1;fillColor=#dae8fc;strokeColor=#6c8ebf;rotation=-90;container=0;" vertex="1" parent="zuJZEfKO20q1fj9bP48e-1">
          <mxGeometry x="-70" y="115" width="230" height="20" as="geometry" />
        </mxCell>
        <mxCell id="zuJZEfKO20q1fj9bP48e-3" value="" style="rounded=1;whiteSpace=wrap;html=1;fillColor=#dae8fc;strokeColor=#6c8ebf;rotation=-90;container=0;" vertex="1" parent="zuJZEfKO20q1fj9bP48e-1">
          <mxGeometry x="-40" y="115" width="210" height="20" as="geometry" />
        </mxCell>
        <mxCell id="zuJZEfKO20q1fj9bP48e-4" value="" style="rounded=1;whiteSpace=wrap;html=1;fillColor=#dae8fc;strokeColor=#6c8ebf;rotation=-90;container=0;" vertex="1" parent="zuJZEfKO20q1fj9bP48e-1">
          <mxGeometry x="-10" y="115" width="190" height="20" as="geometry" />
        </mxCell>
        <mxCell id="zuJZEfKO20q1fj9bP48e-5" value="" style="rounded=1;whiteSpace=wrap;html=1;fillColor=#dae8fc;strokeColor=#6c8ebf;rotation=-90;container=0;" vertex="1" parent="zuJZEfKO20q1fj9bP48e-1">
          <mxGeometry x="20" y="115" width="170" height="20" as="geometry" />
        </mxCell>
        <mxCell id="zuJZEfKO20q1fj9bP48e-6" value="" style="rounded=1;whiteSpace=wrap;html=1;fillColor=#dae8fc;strokeColor=#6c8ebf;rotation=-90;container=0;" vertex="1" parent="zuJZEfKO20q1fj9bP48e-1">
          <mxGeometry x="50" y="115" width="150" height="20" as="geometry" />
        </mxCell>
        <mxCell id="zuJZEfKO20q1fj9bP48e-7" value="" style="rounded=1;whiteSpace=wrap;html=1;fillColor=#dae8fc;strokeColor=#6c8ebf;rotation=-90;container=0;" vertex="1" parent="zuJZEfKO20q1fj9bP48e-1">
          <mxGeometry x="80" y="115" width="130" height="20" as="geometry" />
        </mxCell>
        <mxCell id="zuJZEfKO20q1fj9bP48e-8" value="" style="rounded=1;whiteSpace=wrap;html=1;fillColor=#dae8fc;strokeColor=#6c8ebf;rotation=-90;container=0;" vertex="1" parent="zuJZEfKO20q1fj9bP48e-1">
          <mxGeometry x="105" y="115" width="120" height="20" as="geometry" />
        </mxCell>
        <mxCell id="zuJZEfKO20q1fj9bP48e-9" value="" style="rounded=0;whiteSpace=wrap;html=1;fillColor=#b1ddf0;strokeColor=#10739e;rotation=-90;container=0;" vertex="1" parent="zuJZEfKO20q1fj9bP48e-1">
          <mxGeometry x="145" y="225" width="100" height="20" as="geometry" />
        </mxCell>
        <mxCell id="zuJZEfKO20q1fj9bP48e-10" value="" style="rounded=0;whiteSpace=wrap;html=1;fillColor=#b1ddf0;strokeColor=#10739e;rotation=-90;container=0;" vertex="1" parent="zuJZEfKO20q1fj9bP48e-1">
          <mxGeometry x="165" y="225" width="100" height="20" as="geometry" />
        </mxCell>
        <mxCell id="zuJZEfKO20q1fj9bP48e-11" value="" style="rounded=0;whiteSpace=wrap;html=1;fillColor=#b1ddf0;strokeColor=#10739e;rotation=-90;container=0;" vertex="1" parent="zuJZEfKO20q1fj9bP48e-1">
          <mxGeometry x="185" y="225" width="100" height="20" as="geometry" />
        </mxCell>
        <mxCell id="zuJZEfKO20q1fj9bP48e-12" value="" style="rounded=0;whiteSpace=wrap;html=1;fillColor=#b1ddf0;strokeColor=#10739e;rotation=-90;container=0;" vertex="1" parent="zuJZEfKO20q1fj9bP48e-1">
          <mxGeometry x="205" y="225" width="100" height="20" as="geometry" />
        </mxCell>
        <mxCell id="zuJZEfKO20q1fj9bP48e-13" value="" style="rounded=0;whiteSpace=wrap;html=1;fillColor=#b1ddf0;strokeColor=#10739e;rotation=-90;container=0;" vertex="1" parent="zuJZEfKO20q1fj9bP48e-1">
          <mxGeometry x="225" y="225" width="100" height="20" as="geometry" />
        </mxCell>
        <mxCell id="zuJZEfKO20q1fj9bP48e-14" value="" style="rounded=0;whiteSpace=wrap;html=1;fillColor=#b1ddf0;strokeColor=#10739e;rotation=-90;container=0;" vertex="1" parent="zuJZEfKO20q1fj9bP48e-1">
          <mxGeometry x="145" y="115" width="100" height="20" as="geometry" />
        </mxCell>
        <mxCell id="zuJZEfKO20q1fj9bP48e-15" value="" style="rounded=0;whiteSpace=wrap;html=1;fillColor=#b1ddf0;strokeColor=#10739e;rotation=-90;container=0;" vertex="1" parent="zuJZEfKO20q1fj9bP48e-1">
          <mxGeometry x="165" y="115" width="100" height="20" as="geometry" />
        </mxCell>
        <mxCell id="zuJZEfKO20q1fj9bP48e-16" value="" style="rounded=0;whiteSpace=wrap;html=1;fillColor=#b1ddf0;strokeColor=#10739e;rotation=-90;container=0;" vertex="1" parent="zuJZEfKO20q1fj9bP48e-1">
          <mxGeometry x="185" y="115" width="100" height="20" as="geometry" />
        </mxCell>
        <mxCell id="zuJZEfKO20q1fj9bP48e-17" value="" style="rounded=0;whiteSpace=wrap;html=1;fillColor=#b1ddf0;strokeColor=#10739e;rotation=-90;container=0;" vertex="1" parent="zuJZEfKO20q1fj9bP48e-1">
          <mxGeometry x="205" y="115" width="100" height="20" as="geometry" />
        </mxCell>
        <mxCell id="zuJZEfKO20q1fj9bP48e-18" value="" style="rounded=0;whiteSpace=wrap;html=1;fillColor=#b1ddf0;strokeColor=#10739e;rotation=-90;container=0;" vertex="1" parent="zuJZEfKO20q1fj9bP48e-1">
          <mxGeometry x="225" y="115" width="100" height="20" as="geometry" />
        </mxCell>
        <mxCell id="zuJZEfKO20q1fj9bP48e-19" value="" style="rounded=0;whiteSpace=wrap;html=1;fillColor=#b1ddf0;strokeColor=#10739e;rotation=-90;container=0;" vertex="1" parent="zuJZEfKO20q1fj9bP48e-1">
          <mxGeometry x="145" y="5" width="100" height="20" as="geometry" />
        </mxCell>
        <mxCell id="zuJZEfKO20q1fj9bP48e-20" value="" style="rounded=0;whiteSpace=wrap;html=1;fillColor=#b1ddf0;strokeColor=#10739e;rotation=-90;container=0;" vertex="1" parent="zuJZEfKO20q1fj9bP48e-1">
          <mxGeometry x="165" y="5" width="100" height="20" as="geometry" />
        </mxCell>
        <mxCell id="zuJZEfKO20q1fj9bP48e-21" value="" style="rounded=0;whiteSpace=wrap;html=1;fillColor=#b1ddf0;strokeColor=#10739e;rotation=-90;container=0;" vertex="1" parent="zuJZEfKO20q1fj9bP48e-1">
          <mxGeometry x="185" y="5" width="100" height="20" as="geometry" />
        </mxCell>
        <mxCell id="zuJZEfKO20q1fj9bP48e-22" value="" style="rounded=0;whiteSpace=wrap;html=1;fillColor=#b1ddf0;strokeColor=#10739e;rotation=-90;container=0;" vertex="1" parent="zuJZEfKO20q1fj9bP48e-1">
          <mxGeometry x="205" y="5" width="100" height="20" as="geometry" />
        </mxCell>
        <mxCell id="zuJZEfKO20q1fj9bP48e-23" value="" style="rounded=0;whiteSpace=wrap;html=1;fillColor=#b1ddf0;strokeColor=#10739e;rotation=-90;container=0;" vertex="1" parent="zuJZEfKO20q1fj9bP48e-1">
          <mxGeometry x="225" y="5" width="100" height="20" as="geometry" />
        </mxCell>
        <mxCell id="zuJZEfKO20q1fj9bP48e-25" value="" style="rounded=0;whiteSpace=wrap;html=1;dashed=1;fillColor=none;strokeWidth=2;" vertex="1" parent="1">
          <mxGeometry x="30" y="-300" width="490" height="420" as="geometry" />
        </mxCell>
        <mxCell id="zuJZEfKO20q1fj9bP48e-27" value="" style="rounded=0;whiteSpace=wrap;html=1;dashed=1;fillColor=none;strokeWidth=2;" vertex="1" parent="1">
          <mxGeometry x="30" y="240" width="490" height="420" as="geometry" />
        </mxCell>
        <mxCell id="zuJZEfKO20q1fj9bP48e-28" value="" style="rounded=0;whiteSpace=wrap;html=1;dashed=1;fillColor=none;strokeWidth=2;" vertex="1" parent="1">
          <mxGeometry x="575" y="-50" width="470" height="420" as="geometry" />
        </mxCell>
        <mxCell id="mcdk1JrtX6pNOpIzne4A-1" value="" style="endArrow=none;html=1;rounded=0;strokeWidth=2;" edge="1" parent="1">
          <mxGeometry width="50" height="50" relative="1" as="geometry">
            <mxPoint x="1100" y="698" as="sourcePoint" />
            <mxPoint x="1100" y="-320" as="targetPoint" />
          </mxGeometry>
        </mxCell>
      </root>
    </mxGraphModel>
  </diagram>
</mxfile>
